<svg id="visual" viewBox="0 0 1920 2160" width="1920" height="2160" xmlns="http://www.w3.org/2000/svg" xmlns:xlink="http://www.w3.org/1999/xlink" version="1.1"><g><g transform="translate(1887 152)"><path d="M0 -166.2L143.9 -83.1L143.9 83.1L0 166.2L-143.9 83.1L-143.9 -83.1Z" fill="#2196F3"></path></g><g transform="translate(800 1457)"><path d="M0 -52L45 -26L45 26L0 52L-45 26L-45 -26Z" fill="#2196F3"></path></g><g transform="translate(487 1811)"><path d="M0 -50L43.3 -25L43.3 25L0 50L-43.3 25L-43.3 -25Z" fill="#2196F3"></path></g><g transform="translate(613 394)"><path d="M0 -110L95.3 -55L95.3 55L0 110L-95.3 55L-95.3 -55Z" fill="#2196F3"></path></g><g transform="translate(249 643)"><path d="M0 -129L111.7 -64.5L111.7 64.5L0 129L-111.7 64.5L-111.7 -64.5Z" fill="#2196F3"></path></g><g transform="translate(1092 199)"><path d="M0 -70L60.6 -35L60.6 35L0 70L-60.6 35L-60.6 -35Z" fill="#2196F3"></path></g><g transform="translate(1508 1038)"><path d="M0 -116L100.5 -58L100.5 58L0 116L-100.5 58L-100.5 -58Z" fill="#2196F3"></path></g><g transform="translate(1234 1855)"><path d="M0 -75L65 -37.5L65 37.5L0 75L-65 37.5L-65 -37.5Z" fill="#2196F3"></path></g><g transform="translate(1102 663)"><path d="M0 -162L140.3 -81L140.3 81L0 162L-140.3 81L-140.3 -81Z" fill="#2196F3"></path></g><g transform="translate(1867 1438)"><path d="M0 -85L73.6 -42.5L73.6 42.5L0 85L-73.6 42.5L-73.6 -42.5Z" fill="#2196F3"></path></g><g transform="translate(1521 1569)"><path d="M0 -163L141.2 -81.5L141.2 81.5L0 163L-141.2 81.5L-141.2 -81.5Z" fill="#2196F3"></path></g><g transform="translate(591 1078)"><path d="M0 -43L37.2 -21.5L37.2 21.5L0 43L-37.2 21.5L-37.2 -21.5Z" fill="#2196F3"></path></g></g></svg>