<svg id="visual" viewBox="0 0 900 600" width="900" height="600" xmlns="http://www.w3.org/2000/svg" xmlns:xlink="http://www.w3.org/1999/xlink" version="1.1"><rect x="0" y="0" width="900" height="600" fill="#001220"></rect><defs><linearGradient id="grad1_0" x1="33.3%" y1="0%" x2="100%" y2="100%"><stop offset="20%" stop-color="#001220" stop-opacity="1"></stop><stop offset="80%" stop-color="#001220" stop-opacity="1"></stop></linearGradient></defs><defs><linearGradient id="grad2_0" x1="0%" y1="0%" x2="66.7%" y2="100%"><stop offset="20%" stop-color="#001220" stop-opacity="1"></stop><stop offset="80%" stop-color="#001220" stop-opacity="1"></stop></linearGradient></defs><g transform="translate(900, 0)"><path d="M0 297.5C-42.2 297.4 -84.4 297.3 -113.8 274.8C-143.2 252.3 -159.8 207.5 -173.9 173.9C-188.1 140.4 -199.7 118.2 -219.9 91.1C-240.1 64 -268.8 32 -297.5 0L0 0Z" fill="#d03a94"></path></g><g transform="translate(0, 600)"><path d="M0 -297.5C34.5 -285.6 69 -273.8 108.7 -262.4C148.3 -251 193.1 -240 210.3 -210.3C227.6 -180.7 217.3 -132.3 227.3 -94.1C237.2 -56 267.3 -28 297.5 0L0 0Z" fill="#d03a94"></path></g></svg>