<svg id="visual" viewBox="0 0 960 540" width="960" height="540" xmlns="http://www.w3.org/2000/svg" xmlns:xlink="http://www.w3.org/1999/xlink" version="1.1"><g stroke-width="1" stroke-linejoin="bevel"><path d="M497 236L397 292L475 336Z" fill="#328436" stroke="#328436"></path><path d="M497 236L352 249L397 292Z" fill="#236c28" stroke="#236c28"></path><path d="M475 336L575 344L497 236Z" fill="#358939" stroke="#358939"></path><path d="M397 292L476 415L475 336Z" fill="#1e6323" stroke="#1e6323"></path><path d="M475 336L476 415L575 344Z" fill="#358939" stroke="#358939"></path><path d="M349 447L476 415L397 292Z" fill="#328436" stroke="#328436"></path><path d="M629 174L484 99L497 236Z" fill="#358939" stroke="#358939"></path><path d="M497 236L484 99L352 249Z" fill="#2c7b31" stroke="#2c7b31"></path><path d="M241 420L349 447L397 292Z" fill="#216726" stroke="#216726"></path><path d="M575 344L629 174L497 236Z" fill="#29762e" stroke="#29762e"></path><path d="M349 84L263 174L352 249Z" fill="#328436" stroke="#328436"></path><path d="M352 249L241 420L397 292Z" fill="#2c7b31" stroke="#2c7b31"></path><path d="M484 99L349 84L352 249Z" fill="#328436" stroke="#328436"></path><path d="M472 540L577 470L476 415Z" fill="#1b5e20" stroke="#1b5e20"></path><path d="M476 415L577 470L575 344Z" fill="#328436" stroke="#328436"></path><path d="M575 344L720 217L629 174Z" fill="#328436" stroke="#328436"></path><path d="M263 174L205 321L352 249Z" fill="#2c7b31" stroke="#2c7b31"></path><path d="M205 321L241 420L352 249Z" fill="#358939" stroke="#358939"></path><path d="M629 174L630 89L484 99Z" fill="#2c7b31" stroke="#2c7b31"></path><path d="M484 99L456 0L349 84Z" fill="#358939" stroke="#358939"></path><path d="M396 540L472 540L476 415Z" fill="#328436" stroke="#328436"></path><path d="M396 540L476 415L349 447Z" fill="#216726" stroke="#216726"></path><path d="M255 540L396 540L349 447Z" fill="#1e6323" stroke="#1e6323"></path><path d="M746 354L720 217L575 344Z" fill="#2f8034" stroke="#2f8034"></path><path d="M629 174L735 144L630 89Z" fill="#2f8034" stroke="#2f8034"></path><path d="M581 0L456 0L484 99Z" fill="#236c28" stroke="#236c28"></path><path d="M456 0L374 0L349 84Z" fill="#2c7b31" stroke="#2c7b31"></path><path d="M349 84L204 92L263 174Z" fill="#388e3c" stroke="#388e3c"></path><path d="M714 470L746 354L575 344Z" fill="#1e6323" stroke="#1e6323"></path><path d="M472 540L610 540L577 470Z" fill="#216726" stroke="#216726"></path><path d="M577 470L714 470L575 344Z" fill="#1e6323" stroke="#1e6323"></path><path d="M630 89L581 0L484 99Z" fill="#216726" stroke="#216726"></path><path d="M706 0L581 0L630 89Z" fill="#388e3c" stroke="#388e3c"></path><path d="M863 175L735 144L720 217Z" fill="#2c7b31" stroke="#2c7b31"></path><path d="M720 217L735 144L629 174Z" fill="#26712b" stroke="#26712b"></path><path d="M276 0L204 92L349 84Z" fill="#2c7b31" stroke="#2c7b31"></path><path d="M263 174L137 226L205 321Z" fill="#388e3c" stroke="#388e3c"></path><path d="M610 540L714 470L577 470Z" fill="#2c7b31" stroke="#2c7b31"></path><path d="M204 92L137 226L263 174Z" fill="#1e6323" stroke="#1e6323"></path><path d="M205 321L131 452L241 420Z" fill="#1b5e20" stroke="#1b5e20"></path><path d="M137 226L134 315L205 321Z" fill="#328436" stroke="#328436"></path><path d="M241 420L255 540L349 447Z" fill="#216726" stroke="#216726"></path><path d="M131 452L255 540L241 420Z" fill="#2c7b31" stroke="#2c7b31"></path><path d="M374 0L276 0L349 84Z" fill="#328436" stroke="#328436"></path><path d="M134 315L131 452L205 321Z" fill="#1b5e20" stroke="#1b5e20"></path><path d="M735 144L706 0L630 89Z" fill="#2c7b31" stroke="#2c7b31"></path><path d="M610 540L740 540L714 470Z" fill="#26712b" stroke="#26712b"></path><path d="M714 470L824 396L746 354Z" fill="#1e6323" stroke="#1e6323"></path><path d="M803 540L824 396L714 470Z" fill="#236c28" stroke="#236c28"></path><path d="M746 354L863 341L720 217Z" fill="#388e3c" stroke="#388e3c"></path><path d="M735 144L841 111L706 0Z" fill="#236c28" stroke="#236c28"></path><path d="M204 92L90 109L137 226Z" fill="#388e3c" stroke="#388e3c"></path><path d="M137 226L0 297L134 315Z" fill="#388e3c" stroke="#388e3c"></path><path d="M0 426L98 540L131 452Z" fill="#2c7b31" stroke="#2c7b31"></path><path d="M111 0L90 109L204 92Z" fill="#2f8034" stroke="#2f8034"></path><path d="M960 301L863 341L960 430Z" fill="#328436" stroke="#328436"></path><path d="M824 396L863 341L746 354Z" fill="#236c28" stroke="#236c28"></path><path d="M863 341L863 175L720 217Z" fill="#2f8034" stroke="#2f8034"></path><path d="M863 175L841 111L735 144Z" fill="#1e6323" stroke="#1e6323"></path><path d="M740 540L803 540L714 470Z" fill="#388e3c" stroke="#388e3c"></path><path d="M0 426L131 452L134 315Z" fill="#29762e" stroke="#29762e"></path><path d="M131 452L98 540L255 540Z" fill="#216726" stroke="#216726"></path><path d="M276 0L111 0L204 92Z" fill="#2f8034" stroke="#2f8034"></path><path d="M0 179L0 297L137 226Z" fill="#328436" stroke="#328436"></path><path d="M0 179L137 226L90 109Z" fill="#26712b" stroke="#26712b"></path><path d="M0 73L0 179L90 109Z" fill="#26712b" stroke="#26712b"></path><path d="M0 297L0 426L134 315Z" fill="#29762e" stroke="#29762e"></path><path d="M960 66L856 0L841 111Z" fill="#328436" stroke="#328436"></path><path d="M841 111L856 0L706 0Z" fill="#1e6323" stroke="#1e6323"></path><path d="M111 0L0 73L90 109Z" fill="#328436" stroke="#328436"></path><path d="M960 430L863 341L824 396Z" fill="#358939" stroke="#358939"></path><path d="M863 341L960 235L863 175Z" fill="#236c28" stroke="#236c28"></path><path d="M863 175L960 66L841 111Z" fill="#29762e" stroke="#29762e"></path><path d="M960 301L960 235L863 341Z" fill="#358939" stroke="#358939"></path><path d="M0 426L0 540L98 540Z" fill="#358939" stroke="#358939"></path><path d="M803 540L960 430L824 396Z" fill="#1e6323" stroke="#1e6323"></path><path d="M111 0L0 0L0 73Z" fill="#1b5e20" stroke="#1b5e20"></path><path d="M960 235L960 66L863 175Z" fill="#358939" stroke="#358939"></path><path d="M803 540L960 540L960 430Z" fill="#328436" stroke="#328436"></path><path d="M960 66L960 0L856 0Z" fill="#388e3c" stroke="#388e3c"></path></g></svg>